<mxfile host="Electron" modified="2023-08-09T17:14:54.328Z" agent="Mozilla/5.0 (Windows NT 10.0; Win64; x64) AppleWebKit/537.36 (KHTML, like Gecko) draw.io/21.6.5 Chrome/114.0.5735.243 Electron/25.3.1 Safari/537.36" version="21.6.5" etag="8qBWRz0JsamJ6rs-XKRs" type="device">
  <diagram id="0I1qUdLQifCNKVEJpEYY" name="Page-1">
    <mxGraphModel dx="1098" dy="838" grid="1" gridSize="10" guides="1" tooltips="1" connect="1" arrows="1" fold="1" page="1" pageScale="1" pageWidth="850" pageHeight="1100" math="0" shadow="0">
      <root>
        <mxCell id="0" />
        <mxCell id="1" parent="0" />
        <mxCell id="I4oWijkFMOXWtixw3lyl-10" value="" style="rounded=0;whiteSpace=wrap;html=1;dashed=1;dashPattern=12 12;fillColor=none;" vertex="1" parent="1">
          <mxGeometry x="410" y="120" width="240" height="430" as="geometry" />
        </mxCell>
        <mxCell id="I4oWijkFMOXWtixw3lyl-49" value="" style="rounded=0;whiteSpace=wrap;html=1;dashed=1;dashPattern=12 12;fillColor=none;" vertex="1" parent="1">
          <mxGeometry x="80" y="300" width="310" height="250" as="geometry" />
        </mxCell>
        <mxCell id="I4oWijkFMOXWtixw3lyl-13" value="" style="edgeStyle=orthogonalEdgeStyle;rounded=0;orthogonalLoop=1;jettySize=auto;html=1;" edge="1" parent="1">
          <mxGeometry relative="1" as="geometry">
            <mxPoint x="250" y="500" as="sourcePoint" />
            <mxPoint x="190" y="500" as="targetPoint" />
            <Array as="points">
              <mxPoint x="230" y="500" />
              <mxPoint x="230" y="500" />
            </Array>
          </mxGeometry>
        </mxCell>
        <mxCell id="I4oWijkFMOXWtixw3lyl-26" value="" style="edgeStyle=orthogonalEdgeStyle;rounded=0;orthogonalLoop=1;jettySize=auto;html=1;" edge="1" parent="1" source="I4oWijkFMOXWtixw3lyl-3" target="I4oWijkFMOXWtixw3lyl-14">
          <mxGeometry relative="1" as="geometry">
            <Array as="points">
              <mxPoint x="390" y="380" />
              <mxPoint x="390" y="380" />
            </Array>
          </mxGeometry>
        </mxCell>
        <mxCell id="I4oWijkFMOXWtixw3lyl-3" value="ETL&amp;nbsp;&lt;br&gt;Module" style="rounded=0;whiteSpace=wrap;html=1;fillColor=#d5e8d4;strokeColor=#82b366;gradientColor=#97d077;" vertex="1" parent="1">
          <mxGeometry x="250" y="310" width="120" height="230" as="geometry" />
        </mxCell>
        <mxCell id="I4oWijkFMOXWtixw3lyl-6" value="" style="edgeStyle=orthogonalEdgeStyle;rounded=0;orthogonalLoop=1;jettySize=auto;html=1;" edge="1" parent="1" source="I4oWijkFMOXWtixw3lyl-4">
          <mxGeometry relative="1" as="geometry">
            <mxPoint x="250" y="370" as="targetPoint" />
            <Array as="points">
              <mxPoint x="250" y="370" />
            </Array>
          </mxGeometry>
        </mxCell>
        <mxCell id="I4oWijkFMOXWtixw3lyl-4" value="Data &lt;br&gt;Sources*" style="ellipse;shape=cloud;whiteSpace=wrap;html=1;fillColor=#d5e8d4;strokeColor=#82b366;gradientColor=#97d077;" vertex="1" parent="1">
          <mxGeometry x="80" y="330" width="120" height="80" as="geometry" />
        </mxCell>
        <mxCell id="I4oWijkFMOXWtixw3lyl-35" value="" style="edgeStyle=orthogonalEdgeStyle;rounded=0;orthogonalLoop=1;jettySize=auto;html=1;" edge="1" parent="1" source="I4oWijkFMOXWtixw3lyl-5" target="I4oWijkFMOXWtixw3lyl-34">
          <mxGeometry relative="1" as="geometry">
            <Array as="points">
              <mxPoint x="230" y="230" />
              <mxPoint x="230" y="230" />
            </Array>
          </mxGeometry>
        </mxCell>
        <mxCell id="I4oWijkFMOXWtixw3lyl-5" value="Broker API&#39;s" style="ellipse;shape=cloud;whiteSpace=wrap;html=1;fillColor=#fad9d5;strokeColor=#ae4132;" vertex="1" parent="1">
          <mxGeometry x="80" y="200" width="120" height="80" as="geometry" />
        </mxCell>
        <mxCell id="I4oWijkFMOXWtixw3lyl-39" value="" style="edgeStyle=orthogonalEdgeStyle;rounded=0;orthogonalLoop=1;jettySize=auto;html=1;" edge="1" parent="1">
          <mxGeometry relative="1" as="geometry">
            <mxPoint x="190" y="480" as="sourcePoint" />
            <mxPoint x="250" y="480" as="targetPoint" />
            <Array as="points">
              <mxPoint x="240" y="480" />
              <mxPoint x="240" y="480" />
            </Array>
          </mxGeometry>
        </mxCell>
        <mxCell id="I4oWijkFMOXWtixw3lyl-12" value="Local&amp;nbsp;&lt;br&gt;Cache" style="shape=cylinder3;whiteSpace=wrap;html=1;boundedLbl=1;backgroundOutline=1;size=15;fillColor=#d5e8d4;gradientColor=#97d077;strokeColor=#82b366;" vertex="1" parent="1">
          <mxGeometry x="130" y="450" width="60" height="80" as="geometry" />
        </mxCell>
        <mxCell id="I4oWijkFMOXWtixw3lyl-44" style="edgeStyle=orthogonalEdgeStyle;rounded=0;orthogonalLoop=1;jettySize=auto;html=1;exitX=1;exitY=0.5;exitDx=0;exitDy=0;entryX=1;entryY=0.5;entryDx=0;entryDy=0;" edge="1" parent="1" source="I4oWijkFMOXWtixw3lyl-14" target="I4oWijkFMOXWtixw3lyl-27">
          <mxGeometry relative="1" as="geometry">
            <Array as="points">
              <mxPoint x="630" y="380" />
              <mxPoint x="630" y="155" />
            </Array>
          </mxGeometry>
        </mxCell>
        <mxCell id="I4oWijkFMOXWtixw3lyl-14" value="Simulation Engine" style="rhombus;whiteSpace=wrap;html=1;fillColor=#d5e8d4;strokeColor=#82b366;" vertex="1" parent="1">
          <mxGeometry x="470" y="340" width="80" height="80" as="geometry" />
        </mxCell>
        <mxCell id="I4oWijkFMOXWtixw3lyl-24" style="edgeStyle=orthogonalEdgeStyle;rounded=0;orthogonalLoop=1;jettySize=auto;html=1;entryX=0.5;entryY=1;entryDx=0;entryDy=0;exitX=0.5;exitY=0;exitDx=0;exitDy=0;exitPerimeter=0;" edge="1" parent="1" source="I4oWijkFMOXWtixw3lyl-16" target="I4oWijkFMOXWtixw3lyl-14">
          <mxGeometry relative="1" as="geometry">
            <mxPoint x="480" y="450" as="sourcePoint" />
            <Array as="points" />
          </mxGeometry>
        </mxCell>
        <mxCell id="I4oWijkFMOXWtixw3lyl-25" style="edgeStyle=orthogonalEdgeStyle;rounded=0;orthogonalLoop=1;jettySize=auto;html=1;exitX=0.5;exitY=1;exitDx=0;exitDy=0;exitPerimeter=0;entryX=0.5;entryY=0;entryDx=0;entryDy=0;" edge="1" parent="1" source="I4oWijkFMOXWtixw3lyl-18" target="I4oWijkFMOXWtixw3lyl-14">
          <mxGeometry relative="1" as="geometry">
            <Array as="points">
              <mxPoint x="510" y="300" />
            </Array>
          </mxGeometry>
        </mxCell>
        <mxCell id="I4oWijkFMOXWtixw3lyl-38" value="" style="edgeStyle=orthogonalEdgeStyle;rounded=0;orthogonalLoop=1;jettySize=auto;html=1;" edge="1" parent="1" source="I4oWijkFMOXWtixw3lyl-18" target="I4oWijkFMOXWtixw3lyl-34">
          <mxGeometry relative="1" as="geometry">
            <Array as="points">
              <mxPoint x="380" y="250" />
              <mxPoint x="380" y="250" />
            </Array>
          </mxGeometry>
        </mxCell>
        <mxCell id="I4oWijkFMOXWtixw3lyl-36" value="" style="edgeStyle=orthogonalEdgeStyle;rounded=0;orthogonalLoop=1;jettySize=auto;html=1;" edge="1" parent="1" source="I4oWijkFMOXWtixw3lyl-34" target="I4oWijkFMOXWtixw3lyl-5">
          <mxGeometry relative="1" as="geometry">
            <Array as="points">
              <mxPoint x="230" y="250" />
              <mxPoint x="230" y="250" />
            </Array>
          </mxGeometry>
        </mxCell>
        <mxCell id="I4oWijkFMOXWtixw3lyl-37" value="" style="edgeStyle=orthogonalEdgeStyle;rounded=0;orthogonalLoop=1;jettySize=auto;html=1;entryX=-0.004;entryY=0.305;entryDx=0;entryDy=0;entryPerimeter=0;" edge="1" parent="1" source="I4oWijkFMOXWtixw3lyl-34" target="I4oWijkFMOXWtixw3lyl-18">
          <mxGeometry relative="1" as="geometry">
            <mxPoint x="445" y="230" as="targetPoint" />
            <Array as="points">
              <mxPoint x="418" y="231" />
            </Array>
          </mxGeometry>
        </mxCell>
        <mxCell id="I4oWijkFMOXWtixw3lyl-45" style="edgeStyle=orthogonalEdgeStyle;rounded=0;orthogonalLoop=1;jettySize=auto;html=1;entryX=0;entryY=0.5;entryDx=0;entryDy=0;exitX=0.5;exitY=0;exitDx=0;exitDy=0;" edge="1" parent="1" source="I4oWijkFMOXWtixw3lyl-34" target="I4oWijkFMOXWtixw3lyl-27">
          <mxGeometry relative="1" as="geometry">
            <Array as="points">
              <mxPoint x="310" y="155" />
            </Array>
          </mxGeometry>
        </mxCell>
        <mxCell id="I4oWijkFMOXWtixw3lyl-34" value="Live Trading Server" style="rounded=0;whiteSpace=wrap;html=1;fillColor=#f8cecc;strokeColor=#b85450;" vertex="1" parent="1">
          <mxGeometry x="250" y="215" width="120" height="50" as="geometry" />
        </mxCell>
        <mxCell id="I4oWijkFMOXWtixw3lyl-11" value="&lt;div style=&quot;text-align: center;&quot;&gt;&lt;span style=&quot;background-color: initial;&quot;&gt;Backtesting Framework&lt;/span&gt;&lt;/div&gt;" style="text;whiteSpace=wrap;html=1;fontStyle=1" vertex="1" parent="1">
          <mxGeometry x="410" y="90" width="170" height="23" as="geometry" />
        </mxCell>
        <mxCell id="I4oWijkFMOXWtixw3lyl-46" value="" style="edgeStyle=orthogonalEdgeStyle;rounded=0;orthogonalLoop=1;jettySize=auto;html=1;entryX=0.5;entryY=0;entryDx=0;entryDy=0;entryPerimeter=0;" edge="1" parent="1" source="I4oWijkFMOXWtixw3lyl-27" target="I4oWijkFMOXWtixw3lyl-18">
          <mxGeometry relative="1" as="geometry" />
        </mxCell>
        <mxCell id="I4oWijkFMOXWtixw3lyl-27" value="Performance&lt;br&gt;Analysis" style="rounded=0;whiteSpace=wrap;html=1;fillColor=#d5e8d4;strokeColor=#82b366;gradientColor=#97d077;" vertex="1" parent="1">
          <mxGeometry x="450" y="130" width="120" height="50" as="geometry" />
        </mxCell>
        <mxCell id="I4oWijkFMOXWtixw3lyl-41" value="" style="group" vertex="1" connectable="0" parent="1">
          <mxGeometry x="465" y="440" width="90" height="100" as="geometry" />
        </mxCell>
        <mxCell id="I4oWijkFMOXWtixw3lyl-16" value="" style="html=1;whiteSpace=wrap;shape=isoCube2;backgroundOutline=1;isoAngle=15;fillColor=#d5e8d4;strokeColor=#82b366;" vertex="1" parent="I4oWijkFMOXWtixw3lyl-41">
          <mxGeometry width="90" height="100" as="geometry" />
        </mxCell>
        <mxCell id="I4oWijkFMOXWtixw3lyl-32" value="" style="group" vertex="1" connectable="0" parent="I4oWijkFMOXWtixw3lyl-41">
          <mxGeometry x="0.0002569745050777783" y="38.7360295860139" width="87.57948605098977" height="34.52794082797223" as="geometry" />
        </mxCell>
        <mxCell id="I4oWijkFMOXWtixw3lyl-30" value="&lt;div style=&quot;text-align: center;&quot;&gt;&lt;span style=&quot;background-color: initial;&quot;&gt;Market&lt;/span&gt;&lt;/div&gt;" style="text;whiteSpace=wrap;html=1;fontStyle=1;rotation=22;" vertex="1" parent="I4oWijkFMOXWtixw3lyl-32">
          <mxGeometry x="2.289743025494886" y="6.763970413986101" width="40" height="20" as="geometry" />
        </mxCell>
        <mxCell id="I4oWijkFMOXWtixw3lyl-51" style="edgeStyle=orthogonalEdgeStyle;rounded=0;orthogonalLoop=1;jettySize=auto;html=1;endArrow=none;endFill=0;exitX=1;exitY=0.5;exitDx=0;exitDy=0;exitPerimeter=0;" edge="1" parent="I4oWijkFMOXWtixw3lyl-32" source="I4oWijkFMOXWtixw3lyl-16">
          <mxGeometry relative="1" as="geometry">
            <mxPoint x="164.99974302549492" y="-98.7360295860139" as="targetPoint" />
          </mxGeometry>
        </mxCell>
        <mxCell id="I4oWijkFMOXWtixw3lyl-31" value="&lt;div style=&quot;text-align: center;&quot;&gt;&lt;span style=&quot;background-color: initial;&quot;&gt;Model&lt;/span&gt;&lt;/div&gt;" style="text;whiteSpace=wrap;html=1;fontStyle=1;rotation=338;" vertex="1" parent="I4oWijkFMOXWtixw3lyl-32">
          <mxGeometry x="47.289743025494886" y="7.763970413986101" width="40" height="20" as="geometry" />
        </mxCell>
        <mxCell id="I4oWijkFMOXWtixw3lyl-47" value="" style="rounded=0;whiteSpace=wrap;html=1;dashed=1;dashPattern=12 12;fillColor=none;" vertex="1" parent="1">
          <mxGeometry x="80" y="120" width="310" height="170" as="geometry" />
        </mxCell>
        <mxCell id="I4oWijkFMOXWtixw3lyl-48" value="&lt;div style=&quot;text-align: center;&quot;&gt;&lt;span style=&quot;background-color: initial;&quot;&gt;Live Trading Framework (not ready)&lt;/span&gt;&lt;/div&gt;" style="text;whiteSpace=wrap;html=1;fontStyle=1" vertex="1" parent="1">
          <mxGeometry x="80" y="90" width="230" height="23" as="geometry" />
        </mxCell>
        <mxCell id="I4oWijkFMOXWtixw3lyl-50" value="&lt;div style=&quot;text-align: center;&quot;&gt;&lt;span style=&quot;background-color: initial;&quot;&gt;Data Layer&lt;/span&gt;&lt;/div&gt;" style="text;whiteSpace=wrap;html=1;fontStyle=1" vertex="1" parent="1">
          <mxGeometry x="90" y="300" width="230" height="23" as="geometry" />
        </mxCell>
        <mxCell id="I4oWijkFMOXWtixw3lyl-18" value="" style="html=1;whiteSpace=wrap;shape=isoCube2;backgroundOutline=1;isoAngle=15;fillColor=#d5e8d4;strokeColor=#82b366;" vertex="1" parent="1">
          <mxGeometry x="465" y="200" width="90" height="100" as="geometry" />
        </mxCell>
        <mxCell id="I4oWijkFMOXWtixw3lyl-33" value="" style="group;fontSize=10;" vertex="1" connectable="0" parent="1">
          <mxGeometry x="464.00025697450513" y="237.7360295860139" width="84.57948605098977" height="34.52794082797223" as="geometry" />
        </mxCell>
        <mxCell id="I4oWijkFMOXWtixw3lyl-21" value="&lt;div style=&quot;text-align: center; font-size: 11px;&quot;&gt;&lt;span style=&quot;background-color: initial; font-size: 11px;&quot;&gt;Trading&lt;/span&gt;&lt;/div&gt;" style="text;whiteSpace=wrap;html=1;fontStyle=1;rotation=22;fontSize=11;" vertex="1" parent="I4oWijkFMOXWtixw3lyl-33">
          <mxGeometry x="2.289743025494886" y="6.763970413986101" width="40" height="20" as="geometry" />
        </mxCell>
        <mxCell id="I4oWijkFMOXWtixw3lyl-23" value="&lt;div style=&quot;text-align: center;&quot;&gt;&lt;span style=&quot;background-color: initial;&quot;&gt;&lt;font style=&quot;font-size: 11px;&quot;&gt;Strategy&lt;/font&gt;&lt;/span&gt;&lt;/div&gt;" style="text;whiteSpace=wrap;html=1;fontStyle=1;rotation=331;" vertex="1" parent="I4oWijkFMOXWtixw3lyl-33">
          <mxGeometry x="43.289743025494886" y="5.763970413986101" width="40" height="20" as="geometry" />
        </mxCell>
      </root>
    </mxGraphModel>
  </diagram>
</mxfile>
